<!-- icon666.com - MILLIONS OF FREE VECTOR ICONS --><svg clip-rule="evenodd" fill-rule="evenodd" stroke-linejoin="round" stroke-miterlimit="2" viewBox="0 0 24 24" xmlns="http://www.w3.org/2000/svg"><g id="Icon"><path d="m22.75 11.1v-.2c0-.911-.739-1.65-1.65-1.65-3.323 0-14.877 0-18.2 0-.911 0-1.65.739-1.65 1.65v.2c0 .911.739 1.65 1.65 1.65h18.2c.911 0 1.65-.739 1.65-1.65z" fill="#000000" style="fill: rgb(6, 78, 3);"></path><path d="m5.09 10.463 5.5-7c.255-.325.199-.797-.127-1.053-.325-.255-.797-.199-1.053.127l-5.5 7c-.255.325-.199.797.127 1.053.325.255.797.199 1.053-.127z" fill="#000000" style="fill: rgb(6, 78, 3);"></path><path d="m20.09 9.537-5.5-7c-.256-.326-.728-.382-1.053-.127-.326.256-.382.728-.127 1.053l5.5 7c.256.326.728.382 1.053.127.326-.256.382-.728.127-1.053z" fill="#000000" style="fill: rgb(6, 78, 3);"></path><path d="m2.617 13.735 1.303 5.862c.279 1.258 1.395 2.153 2.684 2.153h10.792c1.289 0 2.405-.895 2.684-2.153l1.303-5.862c-.093.01-18.673.01-18.766 0z" fill="#000000" style="fill: rgb(6, 78, 3);"></path></g></svg>