<!-- icon666.com - MILLIONS OF FREE VECTOR ICONS --><svg xmlns="http://www.w3.org/2000/svg" id="Layer_1" data-name="Layer 1" viewBox="0 0 100 100"><path d="M59.08,50.88,69.31,38.15H64.14a1.5,1.5,0,0,1-1.5-1.5V11H55.52V36.65a1.5,1.5,0,0,1-1.5,1.5H48.85Z"></path><path d="M51.243,78.447a7.539,7.539,0,1,0-7.057,11.694,7.556,7.556,0,0,0,8.285-8.284A7.5,7.5,0,0,0,51.243,78.447Z"></path><path d="M79.39,75.07a7.555,7.555,0,1,0,7.56,7.56A7.517,7.517,0,0,0,79.39,75.07Z"></path><path d="M36.154,61.93H86a1.508,1.508,0,0,0,1.46-1.14l9-36.31A1.5,1.5,0,0,0,95,22.62H65.64V35.15h6.81a1.513,1.513,0,0,1,1.35.86,1.47,1.47,0,0,1-.19,1.58L60.25,54.22a1.5,1.5,0,0,1-1.17.56,1.53,1.53,0,0,1-1.17-.56L44.55,37.59a1.49,1.49,0,0,1-.19-1.58,1.517,1.517,0,0,1,1.36-.86h6.8V22.62H24.28l-1.835-6.065-1.713-5.668A1.533,1.533,0,0,0,19.3,9.82H5a1.5,1.5,0,0,0-1.5,1.5h0c0,.028.007.053.008.08A1.52,1.52,0,0,0,5,12.82H18.18l1.2,3.967L35.869,71.36A1.583,1.583,0,0,0,37.3,72.43H86.26a1.522,1.522,0,0,0,1.5-1.5,1.5,1.5,0,0,0-1.5-1.5H38.419l-.31-1.024Z"></path></svg>