<!-- icon666.com - MILLIONS OF FREE VECTOR ICONS --><svg id="Glyph" viewBox="0 0 64 64" xmlns="http://www.w3.org/2000/svg"><path d="m59.71 41.65a1.83754 1.83754 0 0 0 -1.55-.85h-42.73a1.8444 1.8444 0 0 0 -1.68 2.59l1.76 3.96a1.818 1.818 0 0 0 1.68 1.09h39.17a1.84619 1.84619 0 0 0 1.68-1.08l1.79-3.96a1.81657 1.81657 0 0 0 -.12-1.75z" fill="#000000" style="fill: rgb(255, 0, 0);"></path><path d="m55.9 38.8c-2.3896-12.138-11.32708-15.06907-16.09692-15.75949.43752.14123-.21982 1.87989-.352 2.14292a2.96357 2.96357 0 0 1 -2.6509 1.6566c-2.15271.00016-3.00018-1.88014-3.00018-3.73003-11.3 1.7-15.11 10.89-16.34 15.69zm-8.14-4.61a.965.965 0 0 1 -.43.1 1.002 1.002 0 0 1 -.91-.56 10.44515 10.44515 0 0 0 -1.2-1.93.99954.99954 0 1 1 1.56-1.25 12.30229 12.30229 0 0 1 1.44 2.31.9887.9887 0 0 1 -.46 1.33zm-9.13-7.11a1.00634 1.00634 0 0 1 1.2-.76 12.49 12.49 0 0 1 4.95 2.27.99569.99569 0 0 1 -.61 1.79.97437.97437 0 0 1 -.6-.21 10.65353 10.65353 0 0 0 -4.18-1.89 1.00641 1.00641 0 0 1 -.76-1.2z" fill="#000000" style="fill: rgb(255, 0, 0);"></path><path d="m35.79883 21.38953v2.45031a1 1 0 1 0 2 0v-2.44952l.00117-.00032a3.01012 3.01012 0 1 0 -2.00116-.00048z" fill="#000000" style="fill: rgb(255, 0, 0);"></path><path d="m5 24.83105h15.46973a1 1 0 0 0 0-2h-15.46973a1 1 0 0 0 0 2z" fill="#000000" style="fill: rgb(255, 0, 0);"></path><path d="m19.30176 28.92236a.99974.99974 0 0 0 -1-1h-10.07227a1 1 0 0 0 0 2h10.07227a.99974.99974 0 0 0 1-1z" fill="#000000" style="fill: rgb(255, 0, 0);"></path><path d="m16.84082 34.01416a.99974.99974 0 0 0 -1-1h-10.84082a1 1 0 0 0 0 2h10.84082a.99974.99974 0 0 0 1-1z" fill="#000000" style="fill: rgb(255, 0, 0);"></path></svg>